<svg xmlns="http://www.w3.org/2000/svg" version="1.1" xmlns:xlink="http://www.w3.org/1999/xlink" xmlns:svgjs="http://svgjs.dev/svgjs" width="166" height="166"><svg width="166" height="166" viewBox="0 0 166 166" fill="none" xmlns="http://www.w3.org/2000/svg">
  <path d="M11.987 146.91V106.015C11.987 100.377 11.0621 96.4601 9.21225 94.2635C7.43639 91.9938 4.36564 90.9321 0 91.0786V76.5815C4.36564 76.7279 7.43639 75.7029 9.21225 73.5063C11.0621 71.2366 11.987 67.2828 11.987 61.6451V18.26H25.8609V57.911C25.8609 63.3291 25.6019 67.4293 25.084 70.2115C24.64 72.9938 23.5671 75.4466 21.8652 77.5699C20.2374 79.62 17.5736 81.7067 13.8739 83.83C17.5736 85.9533 20.2374 88.0766 21.8652 90.2C23.5671 92.2501 24.64 94.7028 25.084 97.5583C25.6019 100.341 25.8609 104.404 25.8609 109.749V146.91H11.987Z" fill="#005580"></path>
  <path d="M140.139 109.749C140.139 104.404 140.361 100.341 140.805 97.5583C141.323 94.7028 142.396 92.2501 144.024 90.2C145.726 88.0766 148.426 85.9533 152.126 83.83C148.426 81.7067 145.726 79.62 144.024 77.5699C142.396 75.4466 141.323 72.9938 140.805 70.2115C140.361 67.4293 140.139 63.3291 140.139 57.911V18.26H154.013L154.013 61.6451C154.013 67.2828 154.901 71.2366 156.677 73.5063C158.527 75.7029 161.634 76.7279 166 76.5815V91.0786C161.634 90.9321 158.527 91.9938 156.677 94.2635C154.901 96.4601 154.013 100.377 154.013 106.015V146.91H140.139V109.749Z" fill="#005580"></path>
  <path d="M84.5076 42.3462H80.4922V122.654H84.5076V42.3462Z" fill="#005580"></path>
  <path d="M122.653 80.4922H42.3457V84.5076H122.653V80.4922Z" fill="#005580"></path>
  <path d="M118.278 64.1618L116.271 60.6843L46.722 100.838L48.7297 104.316L118.278 64.1618Z" fill="#005580"></path>
  <path d="M48.7294 60.6844L46.7217 64.1619L116.27 104.316L118.278 100.838L48.7294 60.6844Z" fill="#005580"></path>
  <path d="M82.5003 87.8539C85.4572 87.8539 87.8542 85.4569 87.8542 82.5001C87.8542 79.5432 85.4572 77.1462 82.5003 77.1462C79.5435 77.1462 77.1465 79.5432 77.1465 82.5001C77.1465 85.4569 79.5435 87.8539 82.5003 87.8539Z" fill="#005580"></path>
  <path d="M87.1847 39H77.8154V48.3692H87.1847V39Z" fill="#005580"></path>
  <path d="M87.1847 116.631H77.8154V126H87.1847V116.631Z" fill="#005580"></path>
  <path d="M48.3692 77.8154H39V87.1847H48.3692V77.8154Z" fill="#005580"></path>
  <path d="M126 77.8154H116.631V87.1847H126V77.8154Z" fill="#005580"></path>
  <path d="M122.515 64.8069L117.83 56.6929L109.716 61.3775L114.401 69.4915L122.515 64.8069Z" fill="#005580"></path>
  <path d="M55.2842 103.622L50.5996 95.5083L42.4856 100.193L47.1702 108.307L55.2842 103.622Z" fill="#005580"></path>
  <path d="M47.17 56.6931L42.4854 64.8071L50.5993 69.4917L55.284 61.3778L47.17 56.6931Z" fill="#005580"></path>
  <path d="M114.4 95.5086L109.716 103.623L117.83 108.307L122.514 100.193L114.4 95.5086Z" fill="#005580"></path>
</svg><style>@media (prefers-color-scheme: light) { :root { filter: none; } }
@media (prefers-color-scheme: dark) { :root { filter: none; } }
</style></svg>