<svg xmlns="http://www.w3.org/2000/svg" viewBox="0 0 200 200">
  <g fill="#005580">
    <rect x="97" y="40" width="6" height="120" />
    <rect x="40" y="97" width="120" height="6" />
    <rect x="97" y="40" width="6" height="120" transform="rotate(60 100 100)" />
    <rect x="97" y="40" width="6" height="120" transform="rotate(-60 100 100)" />
    <circle cx="100" cy="100" r="8" />
    <rect x="93" y="35" width="14" height="14" />
    <rect x="93" y="151" width="14" height="14" />
    <rect x="35" y="93" width="14" height="14" />
    <rect x="151" y="93" width="14" height="14" />
    <rect x="93" y="35" width="14" height="14" transform="rotate(60 100 100)" />
    <rect x="93" y="151" width="14" height="14" transform="rotate(60 100 100)" />
    <rect x="93" y="35" width="14" height="14" transform="rotate(-60 100 100)" />
    <rect x="93" y="151" width="14" height="14" transform="rotate(-60 100 100)" />
  </g>
</svg>
