<svg xmlns="http://www.w3.org/2000/svg" width="700" height="560" viewBox="0 0 700 560" role="img" aria-label="Advent of Open Source: the advent calendar"><title>Advent of Open Source: the advent calendar</title><rect x="0" y="0" width="100%" height="100%" fill="#0A1120"/><clipPath id="a2386300"><rect x="0" y="0" width="700" height="560"/></clipPath><g clip-path="url(#a2386300)"><rect x="0" y="0" width="700" height="560" fill="#0A1120"/><g transform="translate(0,0)"><path d="M88.7,20.4 Q65.3,20.4 65.3,43.8 V256.6 Q65.3,280.0 48.3,280.0 Q65.3,280.0 65.3,303.4 V516.2 Q65.3,539.6 88.7,539.6" fill="none" stroke="#92D1FE" stroke-width="5.0" stroke-linejoin="round" stroke-linecap="round"/><path d="M611.3,20.4 Q634.7,20.4 634.7,43.8 V256.6 Q634.7,280.0 651.7,280.0 Q634.7,280.0 634.7,303.4 V516.2 Q634.7,539.6 611.3,539.6" fill="none" stroke="#92D1FE" stroke-width="5.0" stroke-linejoin="round" stroke-linecap="round"/><rect x="113.9" y="43.9" width="83.7" height="83.7" fill="#121C31"/><rect x="211.0" y="43.9" width="83.7" height="83.7" fill="#121C31"/><rect x="308.1" y="43.9" width="83.7" height="83.7" fill="#121C31"/><rect x="405.3" y="43.9" width="83.7" height="83.7" fill="#121C31"/><g transform="translate(417.8,56.4) scale(0.2931)"><path fill="none" stroke="#92D1FE" stroke-width="8" d="M70 40h60l30 30v60l-30 30H70l-30-30V70Z"/><g fill="#92D1FE"><circle cx="100" cy="100" r="40"/><circle cx="100" cy="40" r="8"/><circle cx="100" cy="160" r="8"/><circle cx="40" cy="100" r="8"/><circle cx="160" cy="100" r="8"/></g></g><rect x="502.4" y="43.9" width="83.7" height="83.7" fill="#2B5F85"/><rect x="113.9" y="141.0" width="83.7" height="83.7" fill="#121C31"/><rect x="211.0" y="141.0" width="83.7" height="83.7" fill="#121C31"/><rect x="308.1" y="141.0" width="83.7" height="83.7" fill="#121C31"/><rect x="405.3" y="141.0" width="83.7" height="83.7" fill="#121C31"/><g transform="translate(417.8,153.6) scale(0.2931)"><g stroke="#92D1FE" stroke-width="8" fill="none"><path d="m100 30 70 70-70 70-70-70 70-70Z"/><path d="M100 50v100m-50-50h100"/><path stroke-linecap="square" d="M84.818 48h28.364M84.818 151h28.364M47 85.454v28.091m104-28.09v28.09"/></g><path fill="#92D1FE" d="m100 70 30 30-30 30-30-30 30-30Z"/></g><rect x="502.4" y="141.0" width="83.7" height="83.7" fill="#2B5F85"/><rect x="113.9" y="238.1" width="83.7" height="83.7" fill="#2B5F85"/><rect x="211.0" y="238.1" width="83.7" height="83.7" fill="#2B5F85"/><rect x="308.1" y="238.1" width="83.7" height="83.7" fill="#2B5F85"/><rect x="405.3" y="238.1" width="83.7" height="83.7" fill="#2B5F85"/><rect x="502.4" y="238.1" width="83.7" height="83.7" fill="#4FA3DC"/><rect x="113.9" y="335.3" width="83.7" height="83.7" fill="#2B5F85"/><rect x="211.0" y="335.3" width="83.7" height="83.7" fill="#2B5F85"/><rect x="308.1" y="335.3" width="83.7" height="83.7" fill="#121C31"/><g transform="translate(320.7,347.8) scale(0.2931)"><g fill="#92D1FE"><rect x="97" y="40" width="6" height="120"/><rect x="40" y="97" width="120" height="6"/><rect x="97" y="40" width="6" height="120" transform="rotate(60 100 100)"/><rect x="97" y="40" width="6" height="120" transform="rotate(-60 100 100)"/><circle cx="100" cy="100" r="8"/><rect x="93" y="35" width="14" height="14" transform="rotate(0 100 100)"/><rect x="93" y="151" width="14" height="14" transform="rotate(0 100 100)"/><rect x="93" y="35" width="14" height="14" transform="rotate(60 100 100)"/><rect x="93" y="151" width="14" height="14" transform="rotate(60 100 100)"/><rect x="93" y="35" width="14" height="14" transform="rotate(-60 100 100)"/><rect x="93" y="151" width="14" height="14" transform="rotate(-60 100 100)"/><rect x="35" y="93" width="14" height="14"/><rect x="151" y="93" width="14" height="14"/></g></g><rect x="405.3" y="335.3" width="83.7" height="83.7" fill="#4FA3DC"/><rect x="502.4" y="335.3" width="83.7" height="83.7" fill="#92D1FE"/><rect x="113.9" y="432.4" width="83.7" height="83.7" fill="#4FA3DC"/><rect x="211.0" y="432.4" width="83.7" height="83.7" fill="#4FA3DC"/><rect x="308.1" y="432.4" width="83.7" height="83.7" fill="#92D1FE"/><rect x="405.3" y="432.4" width="83.7" height="83.7" fill="#121C31"/><g transform="translate(417.8,445.0) scale(0.2931)"><g fill="#92D1FE"><rect x="97" y="40" width="6" height="120"/><rect x="40" y="97" width="120" height="6"/><rect x="97" y="40" width="6" height="120" transform="rotate(60 100 100)"/><rect x="97" y="40" width="6" height="120" transform="rotate(-60 100 100)"/><circle cx="100" cy="100" r="8"/><rect x="93" y="35" width="14" height="14" transform="rotate(0 100 100)"/><rect x="93" y="151" width="14" height="14" transform="rotate(0 100 100)"/><rect x="93" y="35" width="14" height="14" transform="rotate(60 100 100)"/><rect x="93" y="151" width="14" height="14" transform="rotate(60 100 100)"/><rect x="93" y="35" width="14" height="14" transform="rotate(-60 100 100)"/><rect x="93" y="151" width="14" height="14" transform="rotate(-60 100 100)"/><rect x="35" y="93" width="14" height="14"/><rect x="151" y="93" width="14" height="14"/></g></g><rect x="502.4" y="432.4" width="83.7" height="83.7" fill="#FCC514"/><g transform="translate(512.5,442.5) scale(0.3182)"><g fill="#0A1120"><rect x="97" y="40" width="6" height="120"/><rect x="40" y="97" width="120" height="6"/><rect x="97" y="40" width="6" height="120" transform="rotate(60 100 100)"/><rect x="97" y="40" width="6" height="120" transform="rotate(-60 100 100)"/><circle cx="100" cy="100" r="8"/><rect x="93" y="35" width="14" height="14" transform="rotate(0 100 100)"/><rect x="93" y="151" width="14" height="14" transform="rotate(0 100 100)"/><rect x="93" y="35" width="14" height="14" transform="rotate(60 100 100)"/><rect x="93" y="151" width="14" height="14" transform="rotate(60 100 100)"/><rect x="93" y="35" width="14" height="14" transform="rotate(-60 100 100)"/><rect x="93" y="151" width="14" height="14" transform="rotate(-60 100 100)"/><rect x="35" y="93" width="14" height="14"/><rect x="151" y="93" width="14" height="14"/></g></g></g></g></svg>
