<svg xmlns="http://www.w3.org/2000/svg" viewBox="0 0 32 32" fill="currentColor" role="img" aria-label="Advent of Open Source"><g transform="translate(0,0) scale(0.19277)"><path d="M11.99 146.91V106.02C11.99 100.38 11.06 96.46 9.21 94.26C7.44 91.99 4.37 90.93 0 91.08V76.58C4.37 76.73 7.44 75.7 9.21 73.51C11.06 71.24 11.99 67.28 11.99 61.65V18.26H25.86V57.91C25.86 63.33 25.6 67.43 25.08 70.21C24.64 72.99 23.57 75.45 21.87 77.57C20.24 79.62 17.57 81.71 13.87 83.83C17.57 85.95 20.24 88.08 21.87 90.2C23.57 92.25 24.64 94.7 25.08 97.56C25.6 100.34 25.86 104.4 25.86 109.75V146.91H11.99Z"/><path d="M140.14 109.75C140.14 104.4 140.36 100.34 140.81 97.56C141.32 94.7 142.4 92.25 144.02 90.2C145.73 88.08 148.43 85.95 152.13 83.83C148.43 81.71 145.73 79.62 144.02 77.57C142.4 75.45 141.32 72.99 140.81 70.21C140.36 67.43 140.14 63.33 140.14 57.91V18.26H154.01V61.65C154.01 67.28 154.9 71.24 156.68 73.51C158.53 75.7 161.63 76.73 166 76.58V91.08C161.63 90.93 158.53 91.99 156.68 94.26C154.9 96.46 154.01 100.38 154.01 106.02V146.91H140.14V109.75Z"/><path d="M84.51 42.35H80.49V122.65H84.51Z"/><path d="M122.65 80.49H42.35V84.51H122.65Z"/><path d="M118.28 64.16L116.27 60.68L46.72 100.84L48.73 104.32Z"/><path d="M48.73 60.68L46.72 64.16L116.27 104.32L118.28 100.84Z"/><circle cx="82.5" cy="82.5" r="5.35"/><path d="M87.18 39H77.82V48.37H87.18Z"/><path d="M87.18 116.63H77.82V126H87.18Z"/><path d="M48.37 77.82H39V87.18H48.37Z"/><path d="M126 77.82H116.63V87.18H126Z"/><path d="M122.52 64.81L117.83 56.69L109.72 61.38L114.4 69.49Z"/><path d="M55.28 103.62L50.6 95.51L42.49 100.19L47.17 108.31Z"/><path d="M47.17 56.69L42.49 64.81L50.6 69.49L55.28 61.38Z"/><path d="M114.4 95.51L109.72 103.62L117.83 108.31L122.51 100.19Z"/></g></svg>
